<?xml version="1.0" encoding="utf-8"?>
<!-- Generator: Adobe Illustrator 18.0.0, SVG Export Plug-In . SVG Version: 6.00 Build 0)  -->
<!DOCTYPE svg PUBLIC "-//W3C//DTD SVG 1.1//EN" "http://www.w3.org/Graphics/SVG/1.1/DTD/svg11.dtd">
<svg version="1.1" id="图层_1" xmlns="http://www.w3.org/2000/svg" xmlns:xlink="http://www.w3.org/1999/xlink" x="0px" y="0px"
	 viewBox="0 0 24 24" enable-background="new 0 0 24 24" xml:space="preserve">
<path fill="#FFFFFF" d="M23.8,19.2l-3.6-6.1V8.2C20.2,3.7,16.5,0,12,0S3.8,3.7,3.8,8.2v4.9l-3.6,6.1h7.2c0.1,2,0.8,4.7,4.6,4.7
	c3.8,0,4.5-2.8,4.6-4.7H23.8z M6.2,13.8V8.2C6.2,5,8.8,2.4,12,2.4s5.8,2.6,5.8,5.8v5.5l1.8,3H4.4L6.2,13.8z M12,21.6
	c-1.6,0-2.1-0.6-2.2-2.3h4.4C14.1,20.9,13.6,21.6,12,21.6z"/>
</svg>
