<?xml version="1.0" encoding="utf-8"?>
<!-- Generator: Adobe Illustrator 18.0.0, SVG Export Plug-In . SVG Version: 6.00 Build 0)  -->
<!DOCTYPE svg PUBLIC "-//W3C//DTD SVG 1.1//EN" "http://www.w3.org/Graphics/SVG/1.1/DTD/svg11.dtd">
<svg version="1.1" id="图层_1" xmlns="http://www.w3.org/2000/svg" xmlns:xlink="http://www.w3.org/1999/xlink" x="0px" y="0px"
	 viewBox="0 0 24 24" enable-background="new 0 0 24 24" xml:space="preserve">
<path fill="#FFFFFF" d="M21,3.4H3c-1.6,0-3,1.3-3,3v11.2c0,1.6,1.3,3,3,3H21c1.6,0,3-1.3,3-3V6.4C24,4.8,22.6,3.4,21,3.4z M20,5.6
	L12.8,12c-0.5,0.4-1.2,0.4-1.7,0L3.9,5.6H20z M21,18.4H3c-0.4,0-0.8-0.4-0.8-0.8V6.9l7.5,6.7c0.7,0.6,1.5,0.9,2.3,0.9
	c0.8,0,1.6-0.3,2.3-0.9l7.5-6.7v10.7C21.8,18,21.4,18.4,21,18.4z"/>
</svg>
