<?xml version="1.0" encoding="utf-8"?>
<!DOCTYPE svg PUBLIC "-//W3C//DTD SVG 1.1//EN" "http://www.w3.org/Graphics/SVG/1.1/DTD/svg11.dtd">
<svg version="1.1" id="图形" xmlns="http://www.w3.org/2000/svg" xmlns:xlink="http://www.w3.org/1999/xlink" x="0px" y="0px" width="1024px" height="1024px" viewBox="0 0 1024 1024" enable-background="new 0 0 1024 1024" xml:space="preserve">
  <path fill="#ffffff" d="M953.248 278.528l-420.544 449.344c-5.056 5.024-11.648 7.296-18.464 7.744h-5.152c-6.816-0.416-13.408-2.688-18.464-7.744l-417.344-449.344c-11.616-11.648-10.912-31.168 1.6-43.68 0.192-0.192 0.416-0.256 0.608-0.416 5.568-5.984 13.28-9.76 21.888-9.76h94.624v-352.736c0-9.408 4.256-17.632 10.72-23.488 5.6-6.624 13.536-10.976 22.656-10.976h191.648c8.768 0 16.576 3.968 22.144 10.176 7.168 5.856 12.032 14.368 12.032 24.352v9.344c-0.16 0.896-0.544 1.696-0.544 2.656v196c0 8.832 7.168 16 16 16h93.344c8.832 0 16-7.168 16-16v-196c0-0.704-0.32-1.312-0.416-1.984v-10.016c0-9.984 4.864-18.496 12.032-24.352 5.568-6.208 13.376-10.176 22.144-10.176h191.648c9.12 0 17.056 4.352 22.656 10.976 6.496 5.856 10.72 14.080 10.72 23.488v352.736h94.624c8.736 0 16.512 3.936 22.080 10.112 0.032 0.032 0.096 0.064 0.128 0.096 12.512 12.448 13.216 32 1.632 43.648zM417.376 160.672c-16.896 0-30.592-14.336-30.592-32 0-0.736 0.352-1.344 0.384-2.080v-225.12h-131.168v354.624c0 4.576-1.024 8.864-2.752 12.768-4.576 11.616-15.456 19.808-28.224 19.808h-55.68l324.896 352.512c15.808 15.808 19.744 15.872 34.816 0l327.712-352.544h-54.976c-12.768 0-23.648-8.192-28.224-19.808-1.728-3.936-2.752-8.224-2.752-12.768v-354.624h-131.2v226.624c0 0.096-0.064 0.192-0.064 0.288s0.064 0.192 0.064 0.288c0 17.664-13.696 32-30.592 32h-191.648z" transform="translate(0, 812) scale(1, -1)"/>
</svg>
