<?xml version="1.0" encoding="utf-8"?>
<!-- Generator: Adobe Illustrator 18.0.0, SVG Export Plug-In . SVG Version: 6.00 Build 0)  -->
<!DOCTYPE svg PUBLIC "-//W3C//DTD SVG 1.1//EN" "http://www.w3.org/Graphics/SVG/1.1/DTD/svg11.dtd">
<svg version="1.1" id="图层_1" xmlns="http://www.w3.org/2000/svg" xmlns:xlink="http://www.w3.org/1999/xlink" x="0px" y="0px"
	 viewBox="0 0 30 30" enable-background="new 0 0 30 30" xml:space="preserve">
<circle fill="#E0E0E0" cx="15" cy="15" r="15"/>
<path fill-rule="evenodd" clip-rule="evenodd" fill="#FFFFFF" d="M7,23.7c0.1,0,0.1,0,0.2,0l5.5-1.6c0.2,0,0.3-0.2,0.4-0.3
	l10.4-10.4c0.3-0.3,0.3-0.8,0-1.1l-3.9-3.9c-0.3-0.3-0.8-0.3-1.1,0L8.2,16.9C8,17,7.9,17.1,7.8,17.3l-1.6,5.5
	c-0.1,0.3,0,0.5,0.2,0.7C6.6,23.7,6.8,23.7,7,23.7z M8.1,21.9l0.9-3l2.1,2.1L8.1,21.9z M19.1,8.1l2.8,2.8l-9.4,9.4l-2.8-2.8
	L19.1,8.1z"/>
</svg>
