<?xml version="1.0" encoding="utf-8"?>
<!-- Generator: Adobe Illustrator 17.0.0, SVG Export Plug-In . SVG Version: 6.00 Build 0)  -->
<!DOCTYPE svg PUBLIC "-//W3C//DTD SVG 1.1//EN" "http://www.w3.org/Graphics/SVG/1.1/DTD/svg11.dtd">
<svg version="1.1" id="图层_1" xmlns="http://www.w3.org/2000/svg" xmlns:xlink="http://www.w3.org/1999/xlink" x="0px" y="0px"
	 width="20px" height="20px" viewBox="0 0 20 20" enable-background="new 0 0 20 20" xml:space="preserve">
<g>
	<g>
		<g>
			<rect x="2.112" y="16.425" fill="#ABAFC0" width="9.936" height="0.639"/>
			<rect x="2.112" y="14.626" fill="#ABAFC0" width="9.936" height="0.639"/>
			<rect x="2.112" y="12.827" fill="#ABAFC0" width="9.936" height="0.639"/>
			<rect x="2.112" y="11.028" fill="#ABAFC0" width="9.936" height="0.639"/>
			<rect x="2.112" y="9.23" fill="#ABAFC0" width="9.936" height="0.639"/>
			<rect x="2.112" y="7.431" fill="#ABAFC0" width="9.936" height="0.639"/>
		</g>
		<g>
			<polygon fill="#ABAFC0" points="14.074,4.495 12.384,4.495 12.385,5.334 13.177,5.333 13.177,19.17 0.98,19.17 0.98,5.335 
				1.592,5.335 1.591,4.495 0.086,4.495 0.086,20 14.074,19.995 			"/>
			<rect x="0.999" y="4.495" fill="#ABAFC0" width="11.654" height="0.839"/>
		</g>
	</g>
	<g>
		<rect x="3.515" y="2.215" fill="#ABAFC0" width="11.654" height="0.839"/>
		<g>
			<polygon fill="#ABAFC0" points="14.9,2.215 14.901,3.054 15.693,3.053 15.693,16.89 14.073,16.89 14.073,17.716 16.59,17.715 
				16.59,2.215 			"/>
			<polygon fill="#ABAFC0" points="3.496,4.496 3.496,3.054 4.108,3.054 4.107,2.215 2.602,2.215 2.602,4.496 			"/>
		</g>
	</g>
	<g>
		<rect x="5.967" y="0" fill="#ABAFC0" width="11.654" height="0.839"/>
		<g>
			<polygon fill="#ABAFC0" points="17.352,0 17.353,0.838 18.145,0.838 18.145,14.675 16.526,14.675 16.526,15.501 19.042,15.5 
				19.042,0 			"/>
			<polygon fill="#ABAFC0" points="5.948,2.281 5.948,0.839 6.561,0.839 6.559,0 5.054,0 5.054,2.281 			"/>
		</g>
	</g>
</g>
</svg>
