<?xml version="1.0" encoding="utf-8"?>
<!-- Generator: Adobe Illustrator 17.0.0, SVG Export Plug-In . SVG Version: 6.00 Build 0)  -->
<!DOCTYPE svg PUBLIC "-//W3C//DTD SVG 1.1//EN" "http://www.w3.org/Graphics/SVG/1.1/DTD/svg11.dtd">
<svg version="1.1" id="图层_1" xmlns="http://www.w3.org/2000/svg" xmlns:xlink="http://www.w3.org/1999/xlink" x="0px" y="0px"
	 width="20px" height="20px" viewBox="0 0 20 20" enable-background="new 0 0 20 20" xml:space="preserve">
<g>
	<path fill="#FFFFFF" d="M-0.006,2.614V20h2.178H3.09h16.916v-3.094V16.01V14.8V2.614H-0.006z M18.984,18.969H1.026V3.646h17.948
		L18.984,18.969z"/>
	<rect x="0.795" y="12.921" fill="#FFFFFF" width="18.189" height="1.031"/>
	<path fill="#FFFFFF" d="M2.5,0v12.993h15V0H2.5z M13.477,7.21v0.914h-3.008v0.943h3.008V9.98h-3.008v1.885H9.485V9.98H6.477V9.066
		h3.008V8.124H6.477V7.21h2.4L6.482,4.036l0.806-0.524l2.714,3.597l2.714-3.597l0.806,0.524L11.128,7.21H13.477z"/>
</g>
</svg>
