<?xml version="1.0" encoding="utf-8"?>
<!-- Generator: Adobe Illustrator 17.0.0, SVG Export Plug-In . SVG Version: 6.00 Build 0)  -->
<!DOCTYPE svg PUBLIC "-//W3C//DTD SVG 1.1//EN" "http://www.w3.org/Graphics/SVG/1.1/DTD/svg11.dtd">
<svg version="1.1" id="图层_1" xmlns="http://www.w3.org/2000/svg" xmlns:xlink="http://www.w3.org/1999/xlink" x="0px" y="0px"
	 width="20px" height="20px" viewBox="0 0 20 20" enable-background="new 0 0 20 20" xml:space="preserve">
<g>
	<g>
		<g>
			<polygon fill="#FFFFFF" points="13.217,13.422 13.226,12.394 18.983,12.395 18.983,9.376 18.983,9.198 18.983,8.169 
				18.983,1.029 1.082,1.029 1.082,12.393 3.141,12.393 3.138,13.429 0.055,13.422 0.055,0 20.011,0 20.011,8.169 20.011,9.376 
				20.011,10.269 20.011,13.429 			"/>
		</g>
		<g>
			<circle fill="#FFFFFF" cx="8.144" cy="7.004" r="2.446"/>
			<path fill="#FFFFFF" d="M12.138,14.559c0.469-0.644,0.744-1.408,0.744-2.229c0-1.311-0.694-2.478-1.774-3.238
				c-0.093,1.167-1.362,2.093-2.917,2.093c-1.573,0-2.852-0.946-2.919-2.132c-1.114,0.759-1.833,1.943-1.833,3.277
				c0,0.821,0.275,1.585,0.744,2.229H12.138z"/>
		</g>
		<polygon fill="#FFFFFF" points="14.136,4.836 14.978,5.425 11.798,9.965 11.101,9.17 		"/>
	</g>
	<g>
		<path fill="#FFFFFF" d="M5.25,20H0v-1.484c0-0.656,0.448-1.188,1-1.188h3.25c0.552,0,1,0.532,1,1.188V20z"/>
		<path fill="#FFFFFF" d="M12.625,20h-5.25v-1.484c0-0.656,0.448-1.188,1-1.188h3.25c0.552,0,1,0.532,1,1.188V20z"/>
		<path fill="#FFFFFF" d="M20,20h-5.25v-1.484c0-0.656,0.448-1.188,1-1.188H19c0.552,0,1,0.532,1,1.188V20z"/>
	</g>
</g>
</svg>
