<?xml version="1.0" encoding="utf-8"?>
<!-- Generator: Adobe Illustrator 17.0.0, SVG Export Plug-In . SVG Version: 6.00 Build 0)  -->
<!DOCTYPE svg PUBLIC "-//W3C//DTD SVG 1.1//EN" "http://www.w3.org/Graphics/SVG/1.1/DTD/svg11.dtd">
<svg version="1.1" id="图层_1" xmlns="http://www.w3.org/2000/svg" xmlns:xlink="http://www.w3.org/1999/xlink" x="0px" y="0px"
	 width="20px" height="20px" viewBox="0 0 20 20" enable-background="new 0 0 20 20" xml:space="preserve">
<g>
	<g>
		<path fill="#FFFFFF" d="M-0.003,8.615V20h2.178h0.918h16.916v-3.094V16.01V14.8V8.615H-0.003z M18.986,18.969H1.029V9.646h17.948
			L18.986,18.969z"/>
		<rect x="0.797" y="13.921" fill="#FFFFFF" width="18.189" height="1.031"/>
		<rect x="9.454" y="8.615" fill="#FFFFFF" width="1.031" height="11.385"/>
	</g>
	<path fill="#FFFFFF" d="M16.626,0.045c0,0-3.561,0.582-5.343,3.128C9.5,5.719,9.002,8.445,10.17,9.264
		c1.168,0.818,3.56-0.582,5.343-3.128C17.296,3.59,16.626,0.045,16.626,0.045z M10.476,8.797c-0.844-0.591-0.232-2.922,1.367-5.206
		c1.599-2.284,4.289-2.867,4.289-2.867s0.367,2.724-1.232,5.008C13.301,8.016,11.32,9.388,10.476,8.797z"/>
	<path fill="#FFFFFF" d="M4.031,1.484c0,0-0.568,3.005,0.943,5.163c1.511,2.158,3.539,3.345,4.529,2.652
		c0.99-0.693,0.568-3.005-0.943-5.163C7.049,1.978,4.031,1.484,4.031,1.484z M9.22,8.921C8.504,9.422,6.825,8.258,5.469,6.322
		c-1.356-1.936-1.009-4.18-1.009-4.18s2.244,0.429,3.6,2.365C9.417,6.444,9.936,8.42,9.22,8.921z"/>
</g>
</svg>
