<?xml version="1.0" encoding="utf-8"?>
<!-- Generator: Adobe Illustrator 17.0.0, SVG Export Plug-In . SVG Version: 6.00 Build 0)  -->
<!DOCTYPE svg PUBLIC "-//W3C//DTD SVG 1.1//EN" "http://www.w3.org/Graphics/SVG/1.1/DTD/svg11.dtd">
<svg version="1.1" id="图层_1" xmlns="http://www.w3.org/2000/svg" xmlns:xlink="http://www.w3.org/1999/xlink" x="0px" y="0px"
	 width="20px" height="20px" viewBox="0 0 20 20" enable-background="new 0 0 20 20" xml:space="preserve">
<polyline fill="none" stroke="#FFFFFF" stroke-miterlimit="10" points="10.624,2.863 13.621,6.31 16.67,2.863 "/>
<g>
	<rect x="0.005" y="0" fill="#FFFFFF" width="19.99" height="0.935"/>
	<rect x="18.057" y="0.468" fill="#FFFFFF" width="0.935" height="15.434"/>
	<rect x="1.007" y="0.468" fill="#FFFFFF" width="0.935" height="7.158"/>
</g>
<g>
	<path fill="#FFFFFF" d="M6.998,11.916L6.998,11.916l7.244-0.692C13.474,8.113,10.628,5.8,7.226,5.8
		c-2.181,0-4.132,0.954-5.457,2.455L6.998,11.916z"/>
	<path fill="#FFFFFF" d="M2.306,18.09l3.804-5.343L1.061,9.211C0.392,10.287,0,11.547,0,12.9C0,14.951,0.891,16.794,2.306,18.09z"/>
	<path fill="#FFFFFF" d="M7.335,13.078l-4.089,5.745C4.387,19.565,5.755,20,7.226,20c3.991,0,7.226-3.179,7.226-7.1
		c0-0.169-0.014-0.334-0.026-0.499L7.335,13.078z"/>
</g>
<rect x="14.375" y="15.821" fill="#FFFFFF" width="4.618" height="0.935"/>
</svg>
