<?xml version="1.0" encoding="utf-8"?>
<!-- Generator: Adobe Illustrator 17.0.0, SVG Export Plug-In . SVG Version: 6.00 Build 0)  -->
<!DOCTYPE svg PUBLIC "-//W3C//DTD SVG 1.1//EN" "http://www.w3.org/Graphics/SVG/1.1/DTD/svg11.dtd">
<svg version="1.1" id="图层_1" xmlns="http://www.w3.org/2000/svg" xmlns:xlink="http://www.w3.org/1999/xlink" x="0px" y="0px"
	 width="20px" height="20px" viewBox="0 0 20 20" enable-background="new 0 0 20 20" xml:space="preserve">
<g>
	<g>
		<polygon fill="#ABAFC0" points="17.499,4.505 17.483,2.693 13.713,0.016 0.001,0.016 0.001,19.984 17.483,19.984 17.499,18.177 
			16.462,18.192 16.462,18.958 1.027,18.958 1.027,1.052 12.803,1.052 12.821,3.638 16.462,3.618 16.462,4.51 		"/>
		<rect x="1.879" y="6.387" fill="#ABAFC0" width="8.192" height="0.834"/>
		<rect x="1.879" y="10.036" fill="#ABAFC0" width="8.192" height="0.834"/>
		<rect x="1.879" y="13.684" fill="#ABAFC0" width="8.192" height="0.834"/>
	</g>
	<g>
		<circle fill="#ABAFC0" cx="16.003" cy="9.114" r="2.063"/>
		<path fill="#ABAFC0" d="M19.371,15.487c0.395-0.543,0.627-1.188,0.627-1.88c0-1.106-0.585-2.09-1.496-2.731
			c-0.079,0.985-1.148,1.765-2.46,1.765c-1.326,0-2.405-0.798-2.463-1.798c-0.939,0.64-1.546,1.639-1.546,2.764
			c0,0.693,0.232,1.337,0.627,1.88H19.371z"/>
	</g>
</g>
</svg>
