<?xml version="1.0" encoding="utf-8"?>
<!-- Generator: Adobe Illustrator 17.0.0, SVG Export Plug-In . SVG Version: 6.00 Build 0)  -->
<!DOCTYPE svg PUBLIC "-//W3C//DTD SVG 1.1//EN" "http://www.w3.org/Graphics/SVG/1.1/DTD/svg11.dtd">
<svg version="1.1" id="图层_1" xmlns="http://www.w3.org/2000/svg" xmlns:xlink="http://www.w3.org/1999/xlink" x="0px" y="0px"
	 width="20px" height="20px" viewBox="0 0 20 20" enable-background="new 0 0 20 20" xml:space="preserve">
<g>
	<polygon fill="#FFFFFF" points="20,4.49 20,2.661 16.213,0 0,0 0,20 20,20 20,3.427 18.966,3.454 18.966,18.958 1.036,18.958 
		1.036,1.021 15.302,1.021 15.297,3.615 18.966,3.608 18.966,4.501 	"/>
	<rect x="5.897" y="15.959" fill="#FFFFFF" width="8.205" height="0.836"/>
	<g>
		<circle fill="#FFFFFF" cx="9.985" cy="6.614" r="2.341"/>
		<path fill="#FFFFFF" d="M13.807,13.844c0.449-0.617,0.712-1.347,0.712-2.134c0-1.255-0.664-2.371-1.698-3.099
			c-0.089,1.117-1.303,2.003-2.792,2.003c-1.505,0-2.729-0.905-2.794-2.04c-1.066,0.726-1.755,1.859-1.755,3.136
			c0,0.786,0.263,1.517,0.712,2.134H13.807z"/>
	</g>
</g>
</svg>
