<?xml version="1.0" encoding="utf-8"?>
<!-- Generator: Adobe Illustrator 17.0.0, SVG Export Plug-In . SVG Version: 6.00 Build 0)  -->
<!DOCTYPE svg PUBLIC "-//W3C//DTD SVG 1.1//EN" "http://www.w3.org/Graphics/SVG/1.1/DTD/svg11.dtd">
<svg version="1.1" id="图层_1" xmlns="http://www.w3.org/2000/svg" xmlns:xlink="http://www.w3.org/1999/xlink" x="0px" y="0px"
	 width="20px" height="20px" viewBox="0 0 20 20" enable-background="new 0 0 20 20" xml:space="preserve">
<g>
	<g>
		<rect x="4.325" y="16.158" fill="#FFFFFF" width="11.35" height="0.795"/>
		<rect x="4.325" y="13.921" fill="#FFFFFF" width="11.35" height="0.795"/>
		<rect x="4.325" y="11.685" fill="#FFFFFF" width="11.35" height="0.795"/>
		<rect x="4.325" y="9.448" fill="#FFFFFF" width="11.35" height="0.795"/>
		<rect x="4.325" y="7.212" fill="#FFFFFF" width="11.35" height="0.795"/>
		<rect x="4.325" y="4.975" fill="#FFFFFF" width="11.35" height="0.795"/>
	</g>
	<g>
		<polygon fill="#FFFFFF" points="19.989,0.725 16.058,0.725 16.06,1.767 18.964,1.766 18.964,18.971 1.031,18.971 1.031,1.768 
			3.731,1.768 3.73,0.725 0.011,0.725 0.011,20.003 19.989,19.997 		"/>
		<rect x="7.418" y="0.725" fill="#FFFFFF" width="4.955" height="1.044"/>
	</g>
	<rect x="4.476" y="-0.003" fill="#FFFFFF" width="1.784" height="1.757"/>
</g>
<rect x="13.305" y="0.027" fill="#FFFFFF" width="1.784" height="1.757"/>
</svg>
